# xmcd CD database file
#
# Track frame offsets:
#	150
#	14700
#	34169
#	59162
#	73001
#	96005
#	111100
#	135485
#	157146
#	173318
#	200173
#	214033
#
# Disc length: 3040 seconds
#
# Revision: 0
# Processed by: cddbd v1.5.2PL0 Copyright (c) Steve Scherf et al.
# Submitted via: CDex 1.51
#
DISCID=b00bde0c
DTITLE=The Gryffyn Band - No Appologies
DYEAR=2007
DGENRE=Blues
TTITLE0=Feedin' The Cat
TTITLE1=I'm Not Feelin' Right
TTITLE2=My Girlfriend Left Me (For My Best Friend's Dad)
TTITLE3=Rough On Your Daddy
TTITLE4=Love Don't Live Here Anymore
TTITLE5=Messin' Up My Home
TTITLE6=The Slider
TTITLE7=Fool Me Once
TTITLE8=Reborn In The Blues
TTITLE9=13 Hours
TTITLE10=Trouble Ain't Hard To Find
TTITLE11=See Me No More
EXTD=YEAR: 2007
EXTT0=
EXTT1=
EXTT2=
EXTT3=
EXTT4=
EXTT5=
EXTT6=
EXTT7=
EXTT8=
EXTT9=
EXTT10=
EXTT11=
PLAYORDER=
